<?xml version="1.0" encoding="UTF-8"?>
<svg id="Layer_1" data-name="Layer 1" xmlns="http://www.w3.org/2000/svg" viewBox="0 0 40 40">
  <defs>
    <style>
      .cls-1 {
        fill: #fff;
      }
    </style>
  </defs>
  <path class="cls-1" d="M0,.87C.32,.19,.85-.02,1.58,0c1.39,.04,2.79,0,4.18,.01,.89,0,1.35,.45,1.35,1.34,0,.32,0,.64,0,1,.15,0,.27,0,.38,0,2.95,0,5.91,0,8.86,0,.26,0,.38-.08,.49-.31C17.49,.74,18.56,.02,20.01,.03c1.44,0,2.49,.72,3.14,2.01,.1,.2,.18,.32,.45,.32,3.01-.01,6.01,0,9.02,0,.08,0,.15,0,.27-.01,0-.38,0-.74,0-1.1,.02-.74,.49-1.22,1.23-1.23,1.55,0,3.1,0,4.65,0,.74,0,1.22,.49,1.23,1.23,0,1.52,0,3.05,0,4.57,0,.74-.49,1.22-1.23,1.23-1.55,0-3.1,0-4.65,0-.74,0-1.21-.49-1.23-1.23,0-.35,0-.7,0-1.08h-4.73c.4,.29,.77,.54,1.12,.82,3.19,2.52,5.09,5.79,5.7,9.8,.12,.8,.22,1.4,1.09,1.85,1.23,.64,1.74,2.26,1.41,3.6-.35,1.41-1.51,2.48-2.89,2.66-1.52,.2-2.89-.47-3.58-1.75-.98-1.8-.31-3.94,1.52-4.84,.17-.09,.29-.15,.26-.4-.27-2.59-1.18-4.92-2.81-6.95-1.73-2.15-3.95-3.59-6.62-4.32-.11-.03-.31,.05-.37,.14-1.38,2.26-4.61,2.25-5.98,0-.05-.09-.26-.16-.37-.13-4.12,1.19-6.98,3.79-8.59,7.75-.45,1.11-.7,2.28-.83,3.48-.02,.22,.03,.32,.23,.42,1.66,.83,2.38,2.53,1.79,4.29-.41,1.23-1.3,2-2.56,2.28-1.31,.28-2.47-.08-3.35-1.1-1.62-1.87-1-4.53,1.28-5.53,.31-.14,.28-.38,.3-.61,.14-1.55,.51-3.05,1.12-4.48,1.16-2.77,2.97-5.02,5.45-6.72,.11-.07,.21-.15,.37-.26H7.11c0,.33,0,.67,0,1.02,0,.83-.47,1.3-1.32,1.3-1.41,0-2.81-.03-4.22,.01-.73,.02-1.26-.19-1.57-.87V.87Z"/>
  <path class="cls-1" d="M12.89,40c-.09-.05-.18-.09-.27-.14-.55-.29-.76-.84-.55-1.42,.7-1.91,2.4-3.17,4.42-3.2,2.34-.03,4.68-.03,7.02,0,2.02,.02,3.72,1.28,4.42,3.2,.24,.67,0,1.14-.82,1.56H12.89Z"/>
  <path class="cls-1" d="M21.25,10.4c1.38,2.07,2.75,4.13,4.13,6.2,1.61,2.41,3.22,4.83,4.83,7.24,.48,.72,.45,1.19-.14,1.82-2,2.1-3.27,4.57-3.85,7.41-.02,.1-.06,.2-.1,.33-.21-.07-.4-.16-.6-.19-.73-.11-1.46-.28-2.19-.3-2.16-.04-4.32,0-6.48-.02-.95,0-1.87,.11-2.76,.44-.07,.03-.15,.03-.19,.04-.28-.92-.52-1.84-.84-2.73-.64-1.78-1.63-3.36-2.93-4.75-.07-.08-.14-.15-.21-.23-.58-.64-.62-1.1-.14-1.82,1.93-2.9,3.87-5.8,5.8-8.7,1.05-1.58,2.11-3.16,3.2-4.81,.02,.16,.04,.25,.04,.34,0,3.46,0,6.92,0,10.38,0,.24-.06,.36-.29,.47-1.49,.69-2.24,2.14-1.99,3.81,.21,1.38,1.49,2.62,2.88,2.8,1.67,.22,3.12-.57,3.78-2.06,.75-1.69,0-3.74-1.7-4.52-.28-.13-.36-.28-.36-.58,.01-3.4,0-6.79,0-10.19v-.38s.05,0,.08-.01Z"/>
  <path class="cls-1" d="M21.17,24.7c0,.64-.54,1.17-1.18,1.16-.64,0-1.17-.54-1.16-1.18,0-.64,.54-1.17,1.18-1.16,.64,0,1.17,.54,1.16,1.18Z"/>
</svg>