<?xml version="1.0" encoding="UTF-8"?>
<svg id="Layer_1" data-name="Layer 1" xmlns="http://www.w3.org/2000/svg" viewBox="0 0 40 40">
  <defs>
    <style>
      .cls-1 {
        fill: #fff;
      }
    </style>
  </defs>
  <path class="cls-1" d="M0,26.85C0,20.63,0,14.4,0,8.17c0-.07,.02-.14,.02-.21,.02-.46,.09-.9,.25-1.33,.62-1.6,1.77-2.58,3.46-2.91,.2-.04,.41-.05,.62-.07,10.44,0,20.88,0,31.31,0,.04,0,.09,.02,.13,.02,.65,.06,1.28,.2,1.85,.53,1.39,.81,2.19,2.01,2.31,3.63,.02,.26,.03,.51,.04,.77v.23c0,.25-.02,.51-.02,.76,0,5.17,0,10.34,0,15.5,0,.18,.01,.36,.02,.54v1.15c-.02,.21-.03,.43-.06,.64-.28,2.23-2.08,3.89-4.32,3.98-.53,.02-1.05,0-1.58,0-2.7,0-5.4,0-8.1,0-.04,0-.07,0-.11,0v2.6h.13c.91,0,1.81,0,2.72,0,.09,0,.18,0,.27,.02,.32,.04,.54,.24,.56,.56,.02,.39,.02,.78,0,1.17-.02,.31-.23,.51-.54,.56-.11,.01-.21,.02-.32,.02-5.67,0-11.35,0-17.02,0-.06,0-.13,0-.19,0-.39-.05-.59-.25-.61-.64-.01-.35-.01-.7,0-1.05,0-.28,.18-.51,.44-.59,.1-.03,.2-.04,.31-.04,.94,0,1.87,0,2.81,0,.04,0,.08,0,.12,0v-2.6c-.05,0-.1,0-.14,0-2.23,0-4.46,0-6.69,0-.6,0-1.21,0-1.81,0-.63,0-1.26,.03-1.89-.05-2.01-.23-3.67-1.89-3.9-3.89C.04,27.27,.02,27.06,0,26.85Zm2.33-3.5H37.65v-.15c0-4.83,0-9.65,0-14.48,0-.24,0-.47,0-.71-.05-1.06-.92-1.95-1.98-2.03-.38-.03-.76,0-1.14,0-9.66,0-19.33,0-28.99,0-.39,0-.78-.02-1.17,0-.75,.05-1.33,.41-1.73,1.05-.26,.41-.33,.87-.33,1.35,0,.77,.01,1.54,.02,2.31,0,4.17,0,8.34,0,12.51v.14Zm17.5,2.34H2.34c0,.47-.02,.93,0,1.39,.06,.93,.68,1.66,1.58,1.92,.33,.09,.67,.09,1,.09,2.07,0,4.14,0,6.21,0,2.72,0,5.44,0,8.17,0h.11c-.68-.38-1.07-.93-1.02-1.71,.06-.9,.58-1.45,1.44-1.68Zm1.05,3.4h.16c4.52,0,9.05,0,13.57,0,.29,0,.58,0,.86,0,1.34-.01,2.15-1.1,2.17-2.1,.01-.37,0-.75,.01-1.12,0-.05,0-.1,0-.17H20.48c.79,.19,1.3,.67,1.43,1.47,.14,.86-.25,1.49-1.02,1.92Zm2.6,4.92v-2.59h-6.64v2.59h6.64Zm-3.32-5.68c.48,0,.88-.4,.88-.87,0-.48-.4-.89-.88-.89-.48,0-.89,.4-.89,.88,0,.48,.4,.88,.88,.88Z"/>
  <path class="cls-1" d="M36.41,22.44H3.61s0-.08,0-.11c0-3.99,0-7.97,0-11.96,0-1.74,1.43-3.18,3.18-3.18,8.82,0,17.63,0,26.45,0,1.74,0,3.18,1.42,3.18,3.18,0,3.99,0,7.99,0,11.98,0,.03,0,.05,0,.09ZM12.58,13.57s.01,0,.02,0c0-.86,0-1.71,0-2.57,0-.19-.06-.26-.26-.26-.32,0-.63,0-.95,0-.24,0-.29,.05-.29,.29,.01,1.45,.02,2.91,.03,4.36,0,.49-.03,.98-.16,1.45-.17,.63-.53,1.11-1.18,1.3-.23,.07-.47,.1-.71,.1-1,0-1.64-.5-1.88-1.48-.1-.4-.13-.8-.13-1.21,0-1.52,.02-3.05,.02-4.57,0-.19-.06-.25-.25-.25-.33,0-.66,0-.99,0-.19,0-.25,.06-.25,.25,0,1.56,0,3.12,0,4.68,0,.54,.05,1.07,.2,1.6,.32,1.15,1.04,1.88,2.2,2.17,.79,.2,1.57,.17,2.35-.05,.91-.26,1.54-.84,1.89-1.72,.2-.5,.32-1.03,.33-1.57,.02-.85,0-1.69,0-2.54Zm11.86,0c0,.7,0,1.41,0,2.11,0,.54,.05,1.08,.2,1.61,.32,1.14,1.04,1.87,2.19,2.16,.76,.19,1.52,.18,2.28-.03,1-.27,1.66-.9,2.01-1.86,.22-.59,.3-1.21,.3-1.84,0-1.58,0-3.15,0-4.73,0-.19-.06-.25-.25-.25-.32,0-.64,0-.96,0-.22,0-.28,.05-.28,.27,.01,1.45,.02,2.91,.03,4.36,0,.51-.03,1.02-.18,1.51-.18,.61-.54,1.06-1.16,1.26-.25,.08-.5,.1-.76,.1-.94-.02-1.55-.49-1.81-1.4-.13-.46-.16-.93-.15-1.4,0-1.49,.02-2.97,.03-4.46,0-.19-.06-.25-.26-.25-.32,0-.65,0-.97,0-.2,0-.26,.06-.26,.26,0,.86,0,1.71,0,2.57Zm-7.46,.26s-.03-.03-.04-.04c-.66-.94-1.33-1.88-1.99-2.83-.13-.18-.28-.25-.49-.24-.34,.01-.69,.02-1.03,.02-.1,0-.2,.01-.25,.12-.05,.1,.01,.16,.06,.23,.92,1.26,1.83,2.52,2.75,3.78,.02,.03,.04,.06,.07,.09-.02,.03-.04,.06-.06,.09-.29,.4-.58,.8-.86,1.2-.68,.94-1.35,1.88-2.03,2.82-.04,.06-.09,.13-.04,.2,.04,.05,.11,.11,.17,.12,.41,.02,.81,.02,1.22,.03,.15,0,.26-.06,.33-.19,.03-.06,.07-.11,.11-.16,.67-.93,1.34-1.86,2.01-2.79,.02-.03,.04-.06,.07-.09,.02,.02,.03,.04,.04,.05,.71,1,1.42,2.01,2.12,3.01,.07,.1,.16,.16,.28,.17,.07,0,.13,0,.2,0,.33,0,.65-.01,.98-.02,.1,0,.19-.02,.24-.11,.05-.09-.01-.16-.06-.23-.89-1.25-1.79-2.49-2.68-3.74-.08-.12-.16-.23-.25-.35,.02-.03,.05-.07,.07-.1,.92-1.27,1.84-2.54,2.77-3.81,.11-.15,.05-.31-.13-.32-.41-.02-.81-.02-1.22-.03-.14,0-.26,.05-.34,.18-.65,.95-1.3,1.89-1.95,2.84-.02,.03-.04,.06-.07,.09Zm15.79,1.24c0,1.36,0,2.71,0,4.07,0,.2,.06,.26,.25,.26,.33,0,.65,0,.98,0,.18,0,.24-.06,.24-.25,0-2.72,0-5.44,0-8.16,0-.19-.06-.25-.25-.25-.32,0-.64,0-.96,0-.2,0-.26,.06-.26,.26,0,1.36,0,2.71,0,4.07Z"/>
</svg>