<?xml version="1.0" encoding="UTF-8"?>
<svg id="Layer_1" data-name="Layer 1" xmlns="http://www.w3.org/2000/svg" viewBox="0 0 40 40">
  <defs>
    <style>
      .cls-1 {
        fill: #fff;
      }
    </style>
  </defs>
  <path class="cls-1" d="M38.33,.08c.47,2.37,.93,4.71,1.41,7.1-6.79,1.35-13.52,2.68-20.26,4.02,0,.04,.01,.07,.02,.11h20.46c.01,.27,.04,.51,.04,.75,0,7.34,0,14.67,0,22.01,0,3.43-2.46,5.86-5.87,5.86-9.43,0-18.87,0-28.3,0C2.47,39.94,0,37.44,0,34.1,0,26.31,0,18.51,0,10.71c0-1.82,1.17-3.32,3-3.69,2.88-.6,5.76-1.15,8.64-1.72,5.7-1.13,11.39-2.27,17.09-3.4,3.11-.62,6.22-1.23,9.33-1.84,.06-.01,.13,0,.28,.02ZM3.9,20.61c0,.26,0,.44,0,.62,0,4.21,0,8.42,0,12.62,0,1.49,.7,2.19,2.19,2.21,.09,0,.18,0,.28,0,9.11,0,18.21,0,27.32-.01,1.79,0,2.42-.62,2.42-2.39,0-4.12,0-8.23,0-12.35,0-.22,0-.45,0-.71H3.9ZM8.91,7.86c1.02,.68,1.94,1.24,2.79,1.89,.76,.58,1.49,.81,2.46,.54,1.14-.33,2.33-.5,3.64-.76-1.24-.83-2.33-1.59-3.46-2.29-.29-.18-.73-.28-1.07-.22-1.4,.23-2.79,.54-4.35,.85ZM28.56,3.96c1.35,.9,2.56,1.71,3.78,2.52,.1,.07,.27,.1,.39,.07,1.52-.29,3.03-.59,4.71-.92-1.23-.83-2.32-1.54-3.38-2.29-.39-.27-.76-.34-1.21-.24-1.37,.29-2.74,.55-4.29,.86Zm-9.83,1.95c1.32,.88,2.5,1.67,3.69,2.44,.15,.1,.39,.16,.57,.13,1.5-.28,2.99-.58,4.64-.9-1.35-.9-2.55-1.72-3.78-2.51-.15-.1-.4-.08-.59-.04-1.46,.28-2.91,.57-4.53,.89Zm-.7,7.38c-1.73,0-3.26,0-4.8,0-.14,0-.32,.08-.42,.17-1.05,.98-2.08,1.98-3.12,2.97,.04,.06,.08,.12,.11,.19,1.57,0,3.15,0,4.72,0,.12,0,.26-.1,.35-.19,1.01-1,2.01-2,3.15-3.15Zm11.6,3.35c1.75,0,3.26,0,4.78,0,.15,0,.34-.03,.44-.13,1.04-1.02,2.07-2.06,3.22-3.21-1.73,0-3.28,0-4.84,0-.14,0-.3,.1-.41,.21-1.02,.99-2.03,1.99-3.19,3.13Zm-9.99,0c1.25,0,2.3-.09,3.34,.02,1.25,.13,2.18-.24,2.97-1.23,.58-.73,1.32-1.35,2.1-2.13-1.71,0-3.22-.01-4.73,.01-.2,0-.44,.13-.59,.28-.99,.95-1.96,1.93-3.1,3.05Z"/>
  <path class="cls-1" d="M17.78,22.74c2.91,1.78,5.73,3.51,8.63,5.28-2.9,1.78-5.73,3.51-8.63,5.29v-10.57Z"/>
</svg>